<svg xmlns="http://www.w3.org/2000/svg" width="22" height="86" viewBox="0 0 22 86" fill="none">
<defs><linearGradient id="b" x1="8" y1="0" x2="30" y2="0" gradientUnits="userSpaceOnUse"><stop offset="0" stop-color="#DBDBDB"/><stop offset="0.0637281" stop-color="#EBEBEB"/><stop offset="0.178482" stop-color="#DADADA"/><stop offset="0.48833" stop-color="#F6F6F6"/><stop offset="0.757139" stop-color="#EFEFEF"/><stop offset="1" stop-color="#DDDDDD"/></linearGradient><linearGradient id="k" x1="8" y1="0" x2="30" y2="0" gradientUnits="userSpaceOnUse"><stop offset="0" stop-color="#1D1D1D"/><stop offset="0.497299" stop-color="#585858"/><stop offset="1" stop-color="#313131"/></linearGradient></defs>
<g transform="translate(-8 0)"><path d="M8 43.877V42.877L15 16.877H23L30 42.877V43.877H8Z" fill="url(#b)"/><path d="M22.8086 17.127L29.75 42.9092V43.627H8.25V42.9092L15.1914 17.127H22.8086Z" stroke="#E3E3E3" stroke-opacity="0.59" stroke-width="0.5"/><path d="M8 42.877H30V85.877H8V42.877Z" fill="url(#b)"/><path d="M14 47.877C14 45.1155 16.2386 42.877 19 42.877C21.7614 42.877 24 45.1155 24 47.877V85.877H14V47.877Z" fill="#F4F4F4"/><path d="M8 45.877C8 44.2201 9.34315 42.877 11 42.877C12.6569 42.877 14 44.2201 14 45.877V85.877H8V45.877Z" fill="#E1E1E1"/><path d="M24 45.877C24 44.2201 25.3431 42.877 27 42.877C28.6569 42.877 30 44.2201 30 45.877V85.877H24V45.877Z" fill="#E7E7E7"/><rect x="8" y="50.877" width="22" height="2" fill="#181818"/><rect x="8" y="50.877" width="22" height="2" fill="url(#k)"/></g>
</svg>
