<svg xmlns="http://www.w3.org/2000/svg" width="35" height="87" viewBox="0 0 35 87" fill="none">
<defs><linearGradient id="b" x1="43" y1="42" x2="8" y2="42" gradientUnits="userSpaceOnUse"><stop offset="0" stop-color="#FFFFFF"/><stop offset="0.526042" stop-color="#F6F6F6"/><stop offset="0.578125" stop-color="#EEEEEE"/><stop offset="1" stop-color="#EEEEEE"/></linearGradient><linearGradient id="l" x1="8" y1="0" x2="10" y2="0" gradientUnits="userSpaceOnUse"><stop offset="0" stop-color="#000000" stop-opacity="0.06"/><stop offset="1" stop-color="#000000" stop-opacity="0"/></linearGradient></defs>
<g transform="translate(-8 0)"><path d="M8 6C8 4.89543 8.89543 4 10 4H41C42.1046 4 43 4.89543 43 6V87H8V6Z" fill="#FFFFFF"/><path d="M8 6C8 4.89543 8.89543 4 10 4H41C42.1046 4 43 4.89543 43 6V87H8V6Z" fill="url(#b)"/><rect x="8" y="6" width="2" height="81" fill="url(#l)"/><path d="M20 81H10L10 82H20V81Z" fill="#909090"/><path d="M10 76H13L13 77H10L10 76Z" fill="#909090"/><path d="M13 71H10L10 72H13V71Z" fill="#909090"/><path d="M10 66H13V67H10L10 66Z" fill="#909090"/><path d="M13 61H10L10 62H13V61Z" fill="#909090"/><path d="M10 56H20V57H10L10 56Z" fill="#909090"/><path d="M13 51H10L10 52H13V51Z" fill="#909090"/><path d="M10 46H13L13 47H10L10 46Z" fill="#909090"/><path d="M13 41H10L10 42H13L13 41Z" fill="#909090"/><path d="M10 36H13V37H10L10 36Z" fill="#909090"/><path d="M20 31H10V32H20V31Z" fill="#909090"/><path d="M10 26H13V27H10L10 26Z" fill="#909090"/><path d="M13 21H10V22H13L13 21Z" fill="#909090"/><path d="M10 16H13L13 17H10L10 16Z" fill="#909090"/><path d="M13 11H10L10 12H13L13 11Z" fill="#909090"/><path d="M20 6L10 6V7L20 7V6Z" fill="#909090"/></g>
</svg>
